# Blender 3.6.0
# www.blender.org
o Cube.001
v -0.693537 2.487044 1.445255
v -0.693537 1.238554 1.445255
v -0.693537 2.487044 -0.554745
v -0.693537 1.238554 -0.554745
v 0.653199 2.487044 1.445254
v 0.653199 1.238554 1.445255
v 0.653198 2.487044 -0.554746
v 0.653198 1.238554 -0.554745
v 0.391605 2.304138 -0.943449
v 0.391605 3.081511 -0.943449
v 0.391606 2.304138 -0.234553
v 0.391606 3.081511 -0.234554
v -0.431944 2.304138 -0.943448
v -0.431944 3.081511 -0.943449
v -0.431944 2.304138 -0.234553
v -0.431944 3.081511 -0.234553
v 0.288772 2.489068 -1.352387
v 0.288772 2.602814 -1.352387
v 0.288772 2.489068 -0.792311
v 0.288772 2.602814 -0.792311
v -0.329111 2.489068 -1.352386
v -0.329111 2.602814 -1.352386
v -0.329111 2.489068 -0.792311
v -0.329111 2.602814 -0.792311
v -0.283056 -0.000000 0.486311
v -0.283056 0.063217 0.486311
v -0.283056 0.000000 0.770058
v -0.283056 0.063217 0.770058
v -0.552984 -0.000000 0.486311
v -0.552984 0.063217 0.486311
v -0.552984 0.000000 0.770058
v -0.552984 0.063217 0.770058
v -0.418020 -0.000000 0.486311
v -0.283056 0.063217 0.628185
v -0.418020 0.063217 0.486311
v -0.485502 0.063217 0.770058
v -0.485502 -0.000000 0.373539
v -0.350538 0.063217 0.373539
v -0.485502 0.063217 0.628185
v -0.485502 0.063217 0.373539
v -0.350538 -0.000000 0.373539
v -0.350538 0.063217 0.770058
v -0.283056 0.063217 0.557248
v -0.350538 0.063217 0.628185
v -0.485502 1.390989 0.770058
v -0.485502 1.390989 0.628185
v -0.350538 1.390989 0.770058
v -0.350538 1.390989 0.628185
v 0.524660 -0.000000 0.486311
v 0.524660 0.063217 0.486311
v 0.524660 0.000000 0.770058
v 0.524660 0.063217 0.770058
v 0.254732 -0.000000 0.486311
v 0.254732 0.063217 0.486311
v 0.254732 0.000000 0.770058
v 0.254732 0.063217 0.770058
v 0.389696 -0.000000 0.486311
v 0.524660 0.063217 0.628185
v 0.389696 0.063217 0.486311
v 0.322214 0.063217 0.770058
v 0.322214 -0.000000 0.373539
v 0.457178 0.063217 0.373539
v 0.322214 0.063217 0.628185
v 0.322214 0.063217 0.373539
v 0.457178 -0.000000 0.373539
v 0.457178 0.063217 0.770058
v 0.524660 0.063217 0.557248
v 0.457178 0.063217 0.628185
v 0.322214 1.390989 0.770058
v 0.322214 1.390989 0.628185
v 0.457178 1.390989 0.770058
v 0.457178 1.390989 0.628185
v -0.678639 2.176841 -0.387115
v -0.678639 2.297156 -0.387115
v -0.678639 2.176841 1.367530
v -0.678639 2.297156 1.367530
v -0.974207 1.402742 -0.387115
v -0.974207 1.523056 -0.387115
v -0.974206 1.402742 1.367530
v -0.974206 1.523056 1.367530
v 0.941275 1.402742 -0.387116
v 0.941275 1.523056 -0.387116
v 0.941275 1.402742 1.367530
v 0.941275 1.523056 1.367530
v 0.645707 2.176841 -0.387115
v 0.645707 2.297156 -0.387115
v 0.645708 2.176841 1.367530
v 0.645708 2.297156 1.367530
vn -0.0000 1.0000 -0.0000
vn -0.0000 -0.0000 -1.0000
vn 1.0000 -0.0000 -0.0000
vn -0.0000 -1.0000 -0.0000
vn -1.0000 -0.0000 -0.0000
vn -0.0000 -0.0000 1.0000
vn 0.8581 -0.0000 -0.5135
vn -0.8581 -0.0000 -0.5135
vn 0.9342 -0.3567 -0.0000
vn -0.9342 0.3567 -0.0000
vn -0.9342 -0.3567 -0.0000
vn 0.9342 0.3567 -0.0000
vt 0.000000 0.342787
vt 0.230822 0.000000
vt 0.230822 0.342787
vt -0.000000 0.874344
vt 0.213983 0.643522
vt 0.213983 0.874344
vt 0.461644 0.336714
vt 0.675627 0.000000
vt 0.675627 0.336714
vt 0.461644 0.000000
vt 0.461644 0.342787
vt 0.461644 0.673428
vt 0.675627 0.673428
vt 0.427967 0.643522
vt 0.427967 0.874344
vt 0.863697 0.601470
vt 0.983044 0.734707
vt 0.863697 0.734707
vt 0.833635 0.596295
vt 0.966872 0.455143
vt 0.966872 0.596295
vt 0.880652 0.000000
vt 1.000000 0.133237
vt 0.880652 0.133237
vt 0.768155 0.970193
vt 0.901392 0.829042
vt 0.901392 0.970193
vt 0.665629 0.814579
vt 0.544128 0.673428
vt 0.665629 0.673428
vt 0.665629 0.955731
vt 0.544128 0.814579
vt 0.863697 0.829000
vt 0.883192 0.734707
vt 0.883192 0.829000
vt 0.880652 0.345039
vt 0.900148 0.239138
vt 0.900148 0.345039
vt 0.902688 0.734707
vt 0.902688 0.829000
vt 0.880652 0.450941
vt 0.900148 0.450941
vt 0.768155 0.945778
vt 0.672162 0.839877
vt 0.768155 0.839877
vt 0.976646 0.239138
vt 0.976646 0.133237
vt 0.433198 0.570359
vt 0.444764 0.581194
vt 0.410066 0.570359
vt 0.768155 0.829042
vt 0.792040 0.601470
vt 0.792040 0.829042
vt 0.438801 0.871094
vt 0.449636 0.892247
vt 0.438801 0.892247
vt 0.444764 0.363941
vt 0.455599 0.411712
vt 0.444764 0.411712
vt 0.455599 0.342787
vt 0.455599 0.363941
vt 0.461644 0.862922
vt 0.484776 0.850764
vt 0.507908 0.850764
vt 0.427967 0.871094
vt 0.451099 0.643522
vt 0.451099 0.871094
vt 0.444764 0.480636
vt 0.455599 0.459482
vt 0.455599 0.480636
vt 0.432467 0.605510
vt 0.443302 0.626664
vt 0.432467 0.626664
vt 0.023132 0.893672
vt 0.046264 0.893672
vt 0.000000 0.942305
vt 0.444764 0.447540
vt 0.444764 0.435597
vt 0.455599 0.411711
vt 0.398500 0.581194
vt 0.421632 0.605510
vt 0.398500 0.605510
vt 0.815926 0.601470
vt 0.815926 0.829042
vt 0.756589 0.829042
vt 0.733457 0.829042
vt 0.833635 0.455144
vt 0.857520 0.227572
vt 0.857520 0.455144
vt 0.421632 0.626664
vt 0.507908 0.852589
vt 0.518743 0.900360
vt 0.507908 0.900360
vt 0.518743 0.831436
vt 0.518743 0.852589
vt 0.138792 0.905831
vt 0.161923 0.893672
vt 0.185055 0.893672
vt 0.857521 0.455144
vt 0.880652 0.227572
vt 0.880652 0.455144
vt 0.523507 0.900360
vt 0.534342 0.879207
vt 0.534342 0.900360
vt 0.427967 0.892247
vt 0.208187 0.893672
vt 0.231319 0.893672
vt 0.185055 0.942305
vt 0.523507 0.867264
vt 0.523507 0.855321
vt 0.534342 0.831436
vt 0.421632 0.629826
vt 0.398500 0.629826
vt 0.839811 0.829042
vt 0.863697 0.829042
vt 0.316016 0.638194
vt 0.336637 0.342787
vt 0.336637 0.638194
vt 0.482265 0.831436
vt 0.482265 0.673428
vt 0.357258 0.342787
vt 0.357258 0.638194
vt 0.502886 0.673428
vt 0.502886 0.831436
vt 0.000000 0.643522
vt 0.158008 0.342787
vt 0.158008 0.643522
vt 0.316016 0.342787
vt 0.316016 0.643522
vt 0.377879 0.342787
vt 0.377879 0.638194
vt 0.523507 0.673428
vt 0.523507 0.831436
vt 0.398500 0.342787
vt 0.398500 0.638194
vt 0.544128 0.831436
vt 0.675627 0.300735
vt 0.833635 0.000000
vt 0.833635 0.300735
vt 0.675627 0.601470
vt 0.833635 0.601470
vt 0.000000 0.000000
vt 0.983044 0.601470
vt 1.000000 0.000000
vt 0.544128 0.955731
vt 0.880652 0.239138
vt 0.672162 0.945778
vt 0.444764 0.570359
vt 0.398500 0.570359
vt 0.410066 0.342787
vt 0.433198 0.342787
vt 0.768155 0.601470
vt 0.449636 0.871094
vt 0.444764 0.342787
vt 0.473210 0.875081
vt 0.473210 0.899397
vt 0.461644 0.899397
vt 0.461644 0.875081
vt 0.507908 0.899397
vt 0.496342 0.899397
vt 0.496342 0.875081
vt 0.461644 0.850764
vt 0.473210 0.831436
vt 0.496342 0.831436
vt 0.444764 0.459482
vt 0.443302 0.605510
vt 0.000000 0.893672
vt 0.011566 0.874344
vt 0.034698 0.874344
vt 0.046264 0.942305
vt 0.444764 0.411711
vt 0.421632 0.581194
vt 0.721891 0.839877
vt 0.721891 0.829042
vt 0.733457 0.601470
vt 0.756589 0.601470
vt 0.833635 0.227572
vt 0.507908 0.831436
vt 0.150357 0.917989
vt 0.150357 0.942305
vt 0.138792 0.942305
vt 0.138792 0.917989
vt 0.173489 0.942305
vt 0.173489 0.917989
vt 0.138792 0.893672
vt 0.150357 0.874344
vt 0.173489 0.874344
vt 0.857521 0.227572
vt 0.523507 0.879207
vt 0.196621 0.874344
vt 0.219753 0.874344
vt 0.231319 0.942305
vt 0.839811 0.601470
vt 0.461644 0.831436
s 0
f 5/1/1 3/2/1 1/3/1
f 3/4/2 8/5/2 4/6/2
f 7/7/3 6/8/3 8/9/3
f 2/3/4 8/10/4 6/11/4
f 1/12/5 4/9/5 2/13/5
f 5/6/6 2/14/6 6/15/6
f 10/16/3 11/17/3 9/18/3
f 12/19/6 15/20/6 11/21/6
f 16/22/5 13/23/5 15/24/5
f 14/25/2 9/26/2 13/27/2
f 15/28/4 9/29/4 11/30/4
f 12/31/1 14/32/1 16/28/1
f 18/33/3 19/34/3 17/35/3
f 20/36/6 23/37/6 19/38/6
f 24/35/5 21/39/5 23/40/5
f 22/41/2 17/38/2 21/42/2
f 23/43/4 17/44/4 19/45/4
f 20/46/1 22/24/1 24/47/1
f 36/48/6 31/49/6 42/50/6
f 44/51/3 47/52/3 42/53/3
f 35/54/7 37/55/7 40/56/7
f 30/57/5 31/58/5 32/59/5
f 30/57/8 37/60/8 29/61/8
f 43/62/1 35/63/1 30/64/1
f 39/65/2 48/66/2 44/67/2
f 38/68/7 25/69/7 41/70/7
f 38/71/8 33/72/8 35/73/8
f 33/74/4 25/75/4 31/76/4
f 43/77/3 34/78/3 27/79/3
f 48/80/1 45/81/1 47/82/1
f 36/53/5 46/83/5 39/84/5
f 60/85/6 55/45/6 66/86/6
f 68/87/3 71/88/3 66/89/3
f 59/81/7 61/73/7 64/90/7
f 54/91/5 55/92/5 56/93/5
f 54/91/8 61/94/8 53/95/8
f 67/96/1 59/97/1 54/98/1
f 63/99/2 72/100/2 68/101/2
f 62/102/7 49/103/7 65/104/7
f 62/65/8 57/56/8 59/105/8
f 57/106/4 49/107/4 55/108/4
f 67/109/3 58/110/3 51/111/3
f 72/82/1 69/112/1 71/113/1
f 60/114/5 70/16/5 63/115/5
f 74/116/3 75/117/3 73/118/3
f 75/119/6 80/12/6 79/120/6
f 80/118/5 77/121/5 79/122/5
f 78/119/2 73/123/2 77/124/2
f 79/125/9 73/126/9 75/127/9
f 76/127/10 78/128/10 80/129/10
f 82/122/3 83/130/3 81/131/3
f 84/124/6 87/132/6 83/133/6
f 88/131/5 85/134/5 87/135/5
f 85/136/2 82/132/2 81/29/2
f 87/137/11 81/138/11 83/139/11
f 84/140/12 86/139/12 88/141/12
f 5/1/1 7/142/1 3/2/1
f 3/4/2 7/125/2 8/5/2
f 7/7/3 5/10/3 6/8/3
f 2/3/4 4/2/4 8/10/4
f 1/12/5 3/7/5 4/9/5
f 5/6/6 1/5/6 2/14/6
f 10/16/3 12/143/3 11/17/3
f 12/19/6 16/87/6 15/20/6
f 16/22/5 14/144/5 13/23/5
f 14/25/2 10/51/2 9/26/2
f 15/28/4 13/32/4 9/29/4
f 12/31/1 10/145/1 14/32/1
f 18/33/3 20/18/3 19/34/3
f 20/36/6 24/146/6 23/37/6
f 24/35/5 22/34/5 21/39/5
f 22/41/2 18/36/2 17/38/2
f 23/43/4 21/147/4 17/44/4
f 20/46/1 18/146/1 22/24/1
f 36/48/6 32/148/6 31/49/6
f 31/49/6 27/80/6 28/149/6
f 42/50/6 47/150/6 45/151/6
f 31/49/6 28/149/6 42/50/6
f 42/50/6 45/151/6 36/48/6
f 44/51/3 48/152/3 47/52/3
f 35/54/7 33/153/7 37/55/7
f 30/57/5 29/61/5 31/58/5
f 30/57/8 40/154/8 37/60/8
f 44/155/1 42/156/1 28/157/1
f 44/155/1 28/157/1 34/158/1
f 32/159/1 36/160/1 39/161/1
f 44/155/1 34/158/1 43/62/1
f 30/64/1 32/159/1 39/161/1
f 39/161/1 44/155/1 43/62/1
f 43/62/1 26/162/1 38/163/1
f 35/63/1 40/164/1 30/64/1
f 43/62/1 38/163/1 35/63/1
f 30/64/1 39/161/1 43/62/1
f 39/65/2 46/14/2 48/66/2
f 38/68/7 26/165/7 25/69/7
f 38/71/8 41/166/8 33/72/8
f 31/76/4 29/167/4 37/168/4
f 33/74/4 41/169/4 25/75/4
f 31/76/4 37/168/4 33/74/4
f 25/75/4 27/170/4 31/76/4
f 27/79/3 25/69/3 26/165/3
f 27/79/3 26/165/3 43/77/3
f 34/78/3 28/171/3 27/79/3
f 48/80/1 46/172/1 45/81/1
f 36/53/5 45/52/5 46/83/5
f 60/85/6 56/51/6 55/45/6
f 55/45/6 51/173/6 52/174/6
f 66/86/6 71/175/6 69/176/6
f 55/45/6 52/174/6 66/86/6
f 66/86/6 69/176/6 60/85/6
f 68/87/3 72/177/3 71/88/3
f 59/81/7 57/71/7 61/73/7
f 54/91/5 53/95/5 55/92/5
f 54/91/8 64/178/8 61/94/8
f 68/179/1 66/180/1 52/181/1
f 68/179/1 52/181/1 58/182/1
f 56/108/1 60/183/1 63/184/1
f 68/179/1 58/182/1 67/96/1
f 54/98/1 56/108/1 63/184/1
f 63/184/1 68/179/1 67/96/1
f 67/96/1 50/185/1 62/186/1
f 59/97/1 64/187/1 54/98/1
f 67/96/1 62/186/1 59/97/1
f 54/98/1 63/184/1 67/96/1
f 63/99/2 70/188/2 72/100/2
f 62/102/7 50/189/7 49/103/7
f 62/65/8 65/54/8 57/56/8
f 55/108/4 53/98/4 61/190/4
f 57/106/4 65/191/4 49/107/4
f 55/108/4 61/190/4 57/106/4
f 49/107/4 51/192/4 55/108/4
f 51/111/3 49/103/3 50/189/3
f 51/111/3 50/189/3 67/109/3
f 58/110/3 52/133/3 51/111/3
f 72/82/1 70/81/1 69/112/1
f 60/114/5 69/193/5 70/16/5
f 74/116/3 76/128/3 75/117/3
f 75/119/6 76/194/6 80/12/6
f 80/118/5 78/117/5 77/121/5
f 78/119/2 74/120/2 73/123/2
f 79/125/9 77/1/9 73/126/9
f 76/127/10 74/126/10 78/128/10
f 82/122/3 84/121/3 83/130/3
f 84/124/6 88/123/6 87/132/6
f 88/131/5 86/130/5 85/134/5
f 85/136/2 86/133/2 82/132/2
f 87/137/11 85/8/11 81/138/11
f 84/140/12 82/137/12 86/139/12
